# xmcd
#
# Track frame offsets: 
#        183
#        11515
#        39660
#        52905
#        67985
#        88185
#        113483
#        125860
#        143565
#        157588
#        173215
#        192318
#
# Disc length: 2873 seconds
#
# Revision: 4
# Processed by: cddbd v1.5.2PL0 Copyright (c) Steve Scherf et al.
# Submitted via: ExactAudioCopyFreeDBPlugin 1.0
#
DISCID=950b370c
DTITLE=Sinéad O'Connor - Am I Not Your Girl?
DYEAR=1992
DGENRE=Blues
TTITLE0=Why Don't You Do Right?
TTITLE1=Bewitched, Bothered And Bewildered
TTITLE2=Secret Love
TTITLE3=Black Coffee
TTITLE4=Success Has Made A Failure Of Our Home
TTITLE5=Don't Cry For Me Argentina
TTITLE6=I Want To Be Loved By You
TTITLE7=Gloomy Sunday
TTITLE8=Love Letters
TTITLE9=How Insensitive
TTITLE10=Scarlet Ribbons
TTITLE11=Don't Cry For Me Argentina (Inst)
EXTD=YEAR: 1992
EXTT0=
EXTT1=
EXTT2=
EXTT3=
EXTT4=
EXTT5=
EXTT6=
EXTT7=
EXTT8=
EXTT9=
EXTT10=
EXTT11=
PLAYORDER=
